<svg width="159" height="58" viewBox="0 0 159 58" fill="none" xmlns="http://www.w3.org/2000/svg">
<path d="M0.995 38.497H4.187V7.603H0.995V3.1H28.754V11.878H24.251V7.603H8.918V20.656H26.531V25.159H8.918V38.497H14.789V43H0.995V38.497ZM28.7335 32.341C28.7335 30.859 29.0185 29.434 29.5885 28.066C30.1965 26.698 31.0135 25.501 32.0395 24.475C33.0655 23.449 34.2815 22.632 35.6875 22.024C37.0935 21.416 38.5945 21.112 40.1905 21.112C41.2165 21.112 42.1665 21.264 43.0405 21.568C43.9145 21.872 44.6745 22.214 45.3205 22.594C45.9665 22.936 46.4795 23.278 46.8595 23.62C47.2395 23.962 47.4295 24.19 47.4295 24.304C47.4295 23.886 47.4675 23.449 47.5435 22.993C47.6195 22.537 47.6575 22.081 47.6575 21.625H51.5905V38.497H55.9225V43H47.4295V41.86V40.72C47.3915 40.834 47.2015 41.043 46.8595 41.347C46.5175 41.651 46.0235 41.974 45.3775 42.316C44.7695 42.62 44.0285 42.886 43.1545 43.114C42.2805 43.38 41.2925 43.513 40.1905 43.513C38.5945 43.513 37.0935 43.228 35.6875 42.658C34.2815 42.05 33.0655 41.233 32.0395 40.207C31.0135 39.181 30.1965 38.003 29.5885 36.673C29.0185 35.305 28.7335 33.861 28.7335 32.341ZM33.5215 32.284C33.5215 34.146 34.1295 35.723 35.3455 37.015C36.5995 38.269 38.2145 38.896 40.1905 38.896C42.1665 38.896 43.7625 38.269 44.9785 37.015C46.2325 35.723 46.8595 34.146 46.8595 32.284C46.8595 30.384 46.2325 28.826 44.9785 27.61C43.7625 26.356 42.1665 25.729 40.1905 25.729C38.2145 25.729 36.5995 26.356 35.3455 27.61C34.1295 28.826 33.5215 30.384 33.5215 32.284ZM88.8614 38.497H93.1934V29.662C93.1174 28.636 92.7374 27.762 92.0534 27.04C91.4074 26.28 90.3624 25.862 88.9184 25.786C87.9304 25.786 86.9804 25.957 86.0684 26.299C85.1944 26.641 84.4154 27.116 83.7314 27.724C83.0474 28.332 82.4964 29.054 82.0784 29.89C81.6604 30.726 81.4514 31.638 81.4514 32.626V38.497H85.0424V43H72.3884V38.497H76.7204V29.662C76.6444 28.636 76.2644 27.762 75.5804 27.04C74.9344 26.28 73.8894 25.862 72.4454 25.786C71.4574 25.786 70.5074 25.957 69.5954 26.299C68.7214 26.641 67.9424 27.116 67.2584 27.724C66.5744 28.332 66.0234 29.054 65.6054 29.89C65.1874 30.726 64.9784 31.638 64.9784 32.626V38.497H68.5694V43H55.9154V38.497H60.2474V26.128H56.4854V21.625H64.4084V22.138C64.4844 23.05 64.5414 23.886 64.5794 24.646C64.6554 25.368 64.7314 26.185 64.8074 27.097C65.6054 25.273 66.8024 23.848 68.3984 22.822C70.0324 21.758 71.9324 21.188 74.0984 21.112C76.1884 21.112 77.8604 21.644 79.1144 22.708C80.4064 23.734 81.1664 25.102 81.3944 26.812C82.2304 25.064 83.4464 23.696 85.0424 22.708C86.6384 21.72 88.4814 21.188 90.5714 21.112C92.8134 21.112 94.5804 21.701 95.8724 22.879C97.1644 24.057 97.8484 25.596 97.9244 27.496V38.497H101.515V43H88.8614V38.497ZM101.522 38.497H105.512V26.128H101.522V21.625H110.243V38.497H114.176V43H101.522V38.497ZM104.999 13.36C104.999 12.486 105.303 11.764 105.911 11.194C106.519 10.624 107.203 10.339 107.963 10.339C108.685 10.339 109.35 10.624 109.958 11.194C110.566 11.764 110.87 12.486 110.87 13.36C110.87 14.234 110.566 14.956 109.958 15.526C109.35 16.058 108.685 16.324 107.963 16.324C107.203 16.324 106.519 16.058 105.911 15.526C105.303 14.956 104.999 14.234 104.999 13.36ZM114.176 38.497H118.508V4.753H114.746V0.249997H123.239V38.497H126.83V43H114.176V38.497ZM130.078 52.747H135.208C136.006 51.113 136.804 49.479 137.602 47.845C138.438 46.211 139.274 44.596 140.11 43C138.666 40.15 137.241 37.338 135.835 34.564C134.467 31.79 133.061 28.978 131.617 26.128H126.829V21.625H139.483V26.128H136.462C137.564 28.218 138.666 30.327 139.768 32.455C140.87 34.545 141.782 36.654 142.504 38.782C143.226 36.654 144.119 34.545 145.183 32.455C146.285 30.327 147.387 28.218 148.489 26.128H144.955V21.625H158.008V26.128H153.334C151.092 30.612 148.85 35.058 146.608 39.466C144.404 43.836 142.181 48.263 139.939 52.747H142.732V57.25H130.078V52.747Z" fill="white"/>
</svg>
