<svg width="112" height="49" viewBox="0 0 112 49" fill="none" xmlns="http://www.w3.org/2000/svg">
<path d="M33.4236 4.68356C33.4709 4.8728 33.4946 5.08569 33.4946 5.32223C33.4946 5.51146 33.4236 5.67705 33.2817 5.81897C33.1871 5.91359 33.0688 5.98455 32.9269 6.03186C32.7849 6.07917 32.6903 6.12648 32.643 6.17379C31.6022 6.50495 30.7507 6.67053 30.0883 6.67053C29.6153 6.67053 29.0712 6.55226 28.4562 6.31571C27.9831 5.88993 27.4154 5.58243 26.7531 5.39319C26.0908 5.20396 24.7188 5.03838 22.6372 4.89645C21.2653 5.03838 20.0589 5.10934 19.0181 5.10934C18.6869 6.85977 18.1429 8.42095 17.386 9.79291C17.1967 10.6918 16.9365 11.496 16.6054 12.2056C16.2742 13.1518 16.1323 13.6959 16.1796 13.8378C16.0377 14.027 15.5882 15.2334 14.8313 17.4569C14.0743 19.6331 13.3647 21.762 12.7024 23.8436C12.2293 25.3102 11.8745 26.3746 11.6379 27.0369C11.4014 27.51 11.0939 28.267 10.7154 29.3077C10.3843 30.3012 10.1477 31.0109 10.0058 31.4366L8.23171 36.3331C7.85325 37.0427 7.38016 38.1781 6.81245 39.7393C6.29206 41.2532 5.86628 42.6252 5.53512 43.8552L4.82549 46.3389C4.58894 47.1904 4.37605 47.8291 4.18682 48.2549C4.04489 48.6807 3.92662 48.9172 3.83201 48.9645C3.73739 49.0118 3.50084 49.0118 3.12237 48.9645C2.74391 48.9645 2.31813 48.657 1.84504 48.042C1.41926 47.4743 1.20637 46.9066 1.20637 46.3389C1.20637 45.2981 1.56119 43.5477 2.27082 41.0876C3.02776 38.6276 3.73739 36.6643 4.39971 35.1977C4.58895 34.3461 4.75453 33.6601 4.89645 33.1398C5.08569 32.6194 5.20396 32.2409 5.25127 32.0043C5.39319 31.8151 5.60608 31.3184 5.88993 30.5141C6.22109 29.6626 6.48129 28.882 6.67053 28.1723C6.81246 27.3208 8.27903 22.5663 11.0702 13.9088L11.567 12.4185C11.9928 11.7089 12.3949 10.81 12.7734 9.72194C13.1518 9.4854 13.3411 8.98866 13.3411 8.23172C13.3411 8.08979 13.412 7.90055 13.5539 7.66401C13.7432 7.42747 13.8378 7.26189 13.8378 7.16727C13.9324 7.07265 14.027 6.85976 14.1216 6.5286C14.2636 6.15013 14.4292 5.86628 14.6184 5.67704V5.60608L13.483 5.67704L10.0058 6.03186L8.4446 6.17379C5.7007 6.41033 4.11586 6.57591 3.69008 6.67053C2.27082 6.76515 1.25368 6.69418 0.638668 6.45764C0.0709633 6.2211 -0.118272 5.74801 0.0709629 5.03838C0.212889 4.47067 0.496741 4.0449 0.92252 3.76104C1.39561 3.47719 2.10524 3.2643 3.05141 3.12237C3.47719 3.02776 4.30509 2.88583 5.53512 2.6966L7.45112 2.34178L9.86386 2.05793C12.6078 1.63215 15.5173 1.3483 18.5923 1.20637C19.8697 1.15906 20.9341 1.11175 21.7857 1.06445C22.6845 0.969829 23.2759 0.898867 23.5597 0.851559C24.2221 0.898867 25.2865 1.01714 26.7531 1.20637C28.267 1.39561 29.3551 1.6085 30.0174 1.84504C31.0582 2.08158 31.8151 2.41275 32.2882 2.83852C32.8086 3.2643 33.1871 3.87932 33.4236 4.68356Z" fill="white"/>
<path d="M23.129 43.3584C22.7505 43.0746 22.4903 42.8144 22.3484 42.5778C22.2065 42.3413 22.1355 41.9865 22.1355 41.5134C22.1355 41.0876 22.1591 40.7328 22.2064 40.449C22.3484 38.8405 22.7032 36.9718 23.2709 34.8429L23.6257 33.4236C23.7676 32.2409 24.5955 29.7572 26.1094 25.9725C27.6233 22.1878 28.8533 19.6095 29.7995 18.2375C30.178 18.001 30.5801 17.8827 31.0059 17.8827C31.6209 17.8827 32.1413 18.0956 32.5671 18.5214C32.8509 18.7106 32.9928 19.0654 32.9928 19.5858C32.9928 20.0589 32.8036 20.7685 32.4251 21.7147C32.094 22.6136 31.5026 23.9619 30.6511 25.7596C30.4618 26.1381 30.1307 26.8477 29.6576 27.8885C29.2318 28.9293 29.0189 29.5443 29.0189 29.7335C29.0189 29.8281 29.0426 29.8755 29.0899 29.8755C29.1845 29.8755 29.2791 29.8518 29.3737 29.8045C29.4683 29.7099 29.563 29.6389 29.6576 29.5916C30.178 28.6927 31.4316 27.4627 33.4186 25.9015C35.4529 24.3403 36.8485 23.3705 37.6054 22.992C37.9366 22.8028 38.3624 22.6136 38.8828 22.4243C39.4032 22.2351 39.758 22.0932 39.9472 21.9986C40.7042 21.6201 41.603 21.4308 42.6438 21.4308C43.3061 21.4308 43.8738 21.5491 44.3469 21.7857C44.8673 21.9749 45.2221 22.2824 45.4114 22.7082C45.4587 23.0393 45.577 23.2995 45.7662 23.4888C46.0027 23.678 46.1683 23.7963 46.2629 23.8436C46.4049 23.8436 46.4995 23.9146 46.5468 24.0565C46.5941 24.1511 46.6177 24.2221 46.6177 24.2694C46.6177 24.6005 46.4285 24.8134 46.05 24.908C45.6716 24.9553 44.9856 25.0027 43.9921 25.05C43.4717 25.0973 42.9277 25.2155 42.36 25.4048C41.7923 25.594 41.2246 25.8306 40.6568 26.1144C38.0076 27.6283 36.0206 28.811 34.6959 29.6626C33.4186 30.5141 32.1176 31.6732 30.793 33.1398C30.2726 33.7075 29.5866 34.7246 28.7351 36.1912C28.4039 36.5223 28.0491 37.3975 27.6706 38.8168C27.3394 40.1888 27.1739 41.0403 27.1739 41.3715C27.1266 41.5134 27.0319 41.7972 26.89 42.223C26.7481 42.6015 26.5352 42.98 26.2513 43.3584C25.6836 44.1154 25.2106 44.4938 24.8321 44.4938C24.4063 44.4938 23.8386 44.1154 23.129 43.3584Z" fill="white"/>
<path d="M55.3628 14.7603C55.0317 14.4292 54.7478 13.8615 54.5113 13.0572C54.2747 12.253 54.2747 11.8508 54.5113 11.8508C54.8897 11.8035 55.3155 11.4014 55.7886 10.6445C56.309 9.84021 56.5456 9.17789 56.4982 8.65749C56.4982 8.46826 56.5692 8.30268 56.7111 8.16075C56.8531 7.97152 57.0186 7.85325 57.2079 7.80594C57.5863 7.5694 57.9175 7.45112 58.2014 7.45112C59.0056 7.45112 59.7389 8.01883 60.4012 9.15424C60.6851 9.76925 60.827 10.3133 60.827 10.7864C60.827 11.2122 60.7087 11.6616 60.4722 12.1347C60.2356 12.5605 59.8098 13.1282 59.1948 13.8378C58.3906 14.9259 57.6336 15.4699 56.924 15.4699C56.4509 15.4699 55.9305 15.2334 55.3628 14.7603ZM48.4794 43.5713C47.8171 42.909 47.4859 41.9628 47.4859 40.7328C47.4859 40.0705 47.6042 39.5028 47.8408 39.0297C47.8408 38.7931 47.8881 38.5093 47.9827 38.1781C48.0773 37.847 48.1246 37.6341 48.1246 37.5395C48.0773 37.2556 48.2665 36.475 48.6923 35.1977C49.5439 33.3053 50.6793 29.9701 52.0985 25.1919C52.0985 24.9553 52.1932 24.7661 52.3824 24.6242C52.5716 24.435 52.8555 24.3167 53.2339 24.2694C53.6124 24.1748 53.8726 24.1274 54.0145 24.1274C54.2984 24.1274 54.5349 24.2457 54.7242 24.4823C54.9607 24.6715 55.2682 25.05 55.6467 25.6177C55.9305 25.9015 56.0725 26.3273 56.0725 26.895C56.0725 27.7939 55.765 28.882 55.1499 30.1593C54.5349 31.5313 54.1328 32.714 53.9436 33.7075C53.3759 34.9848 52.9264 36.1675 52.5953 37.2556C52.5007 37.5395 52.3587 38.1072 52.1695 38.9587C51.9803 39.8103 51.7201 40.4963 51.3889 41.0167C51.105 42.3413 50.8449 43.2638 50.6083 43.7842C50.3718 44.3046 50.1116 44.5648 49.8277 44.5648C49.4966 44.5648 49.0471 44.2336 48.4794 43.5713Z" fill="white"/>
<path d="M66.4702 43.7133C66.281 43.7606 65.9971 43.7842 65.6187 43.7842C64.4359 43.7842 63.3005 43.1929 62.2124 42.0101C61.9759 41.679 61.8576 41.4188 61.8576 41.2295C61.8576 41.0403 61.9286 40.8747 62.0705 40.7328C62.2124 40.5909 62.4017 40.5199 62.6382 40.5199C62.8274 40.5199 62.9457 40.2834 62.993 39.8103C63.0876 39.2899 63.1823 38.5803 63.2769 37.6814C63.3242 37.1137 63.4425 36.5696 63.6317 36.0492C63.8209 35.4815 63.9155 35.1031 63.9155 34.9138C63.9629 34.7719 64.0102 34.3934 64.0575 33.7784C64.1521 33.1161 64.294 32.5484 64.4833 32.0753C64.7671 30.8453 65.2165 29.1185 65.8315 26.895C66.4939 24.6242 67.0379 22.9211 67.4637 21.7857C67.5583 20.9341 68.0551 19.6331 68.9539 17.8827C69.8528 15.3753 71.2484 11.9928 73.1407 7.73498C75.0331 3.47719 76.1922 1.06445 76.6179 0.496739C77.0437 0.16558 77.4458 0 77.8243 0C78.4393 0 79.0307 0.283853 79.5984 0.851559C79.9769 1.37195 80.1661 1.86869 80.1661 2.34178C80.1661 2.95679 79.8586 3.64277 79.2436 4.39971C79.0543 4.73087 78.8414 5.133 78.6049 5.60608C78.3684 6.03186 78.1318 6.45764 77.8953 6.88342C77.6114 7.73498 76.9964 9.15424 76.0502 11.1412C74.7256 13.8851 73.6375 16.4634 72.7859 18.8762C72.4548 19.6331 72.0999 20.5083 71.7215 21.5018C71.3903 22.4953 71.1538 23.063 71.0119 23.2049C70.8226 24.0565 70.5388 24.908 70.1603 25.7596C69.5453 27.6519 69.1668 29.0002 69.0249 29.8045L71.5796 27.3208C73.5192 25.2392 75.4116 23.5834 77.2566 22.3534C79.1016 21.076 80.6392 20.4374 81.8692 20.4374C82.8627 20.4374 83.9508 20.8158 85.1335 21.5728C86.3162 22.3297 87.0968 23.1576 87.4753 24.0565C87.8064 24.8607 87.972 25.6177 87.972 26.3273C87.972 28.3616 87.0022 30.6087 85.0625 33.0688C84.5894 33.9203 83.9744 34.7719 83.2175 35.6235C82.5079 36.4277 81.8692 37.0427 81.3015 37.4685C80.0242 38.6512 79.1963 39.3845 78.8178 39.6684C78.2974 40.0468 77.8007 40.378 77.3276 40.6618C76.9018 40.8984 76.3814 41.1113 75.7664 41.3005C74.8675 41.9155 73.6375 42.4123 72.0763 42.7907C70.5624 43.1219 68.6937 43.4294 66.4702 43.7133ZM68.3153 40.0941C68.883 40.0941 69.5689 39.9995 70.3732 39.8103C71.1774 39.6211 71.9107 39.2899 72.573 38.8168C74.6073 37.776 76.4287 36.4514 78.0372 34.8429C79.6457 33.2344 80.8757 31.6022 81.7273 29.9464C82.6261 28.2906 83.0756 26.895 83.0756 25.7596C83.0756 24.8134 82.6734 24.3403 81.8692 24.3403C81.2069 24.3403 80.2607 24.7425 79.0307 25.5467C77.8006 26.351 76.4287 27.4864 74.9148 28.9529C73.8267 29.9464 72.4075 31.4603 70.657 33.4946C70.657 33.4946 70.2313 33.9913 69.3797 34.9848C69.2851 35.1267 69.0722 35.4815 68.741 36.0492C68.4099 36.5696 68.2206 37.0427 68.1733 37.4685C68.0314 38.1781 67.9604 38.7458 67.9604 39.1716C67.9604 39.7866 68.0787 40.0941 68.3153 40.0941Z" fill="white"/>
<path d="M98.586 46.055C96.5517 46.055 94.8723 45.2981 93.5476 43.7842C92.223 42.2703 91.5606 40.378 91.5606 38.1072C91.5606 35.8364 92.0574 33.3526 93.0509 30.656C94.0917 27.9121 95.4163 25.4521 97.0248 23.2759C98.6333 21.0997 100.265 19.6331 101.921 18.8762C102.867 18.3558 103.932 18.0956 105.115 18.0956C106.013 18.0956 107.031 18.3558 108.166 18.8762C108.97 19.2073 109.585 19.6095 110.011 20.0826C110.437 20.5556 110.815 21.2889 111.146 22.2824C111.288 23.134 111.359 23.7253 111.359 24.0565C111.359 24.3403 111.241 24.9553 111.005 25.9015C110.437 27.6519 109.68 29.1422 108.734 30.3722C107.835 31.5549 106.652 32.572 105.186 33.4236C104.429 33.8967 103.482 34.1332 102.347 34.1332C101.354 34.1332 100.407 33.9677 99.5085 33.6365C98.657 33.258 97.9946 32.714 97.5215 32.0043L97.0248 31.4366L96.8119 32.0043C95.8184 34.559 95.3217 36.7352 95.3217 38.5329C95.3217 39.763 95.5582 40.7565 96.0313 41.5134C96.3625 42.0338 97.1667 42.294 98.4441 42.294C99.3902 42.294 100.076 42.1994 100.502 42.0101C101.212 41.7736 101.827 41.4897 102.347 41.1586C102.915 40.7801 103.459 40.4016 103.979 40.0232L104.263 39.8812H104.192C104.76 39.5974 105.233 39.3372 105.611 39.1007C105.99 38.8641 106.25 38.6985 106.392 38.6039C106.487 38.6039 106.581 38.5803 106.676 38.5329C106.77 38.4856 106.865 38.391 106.96 38.2491C107.385 38.0599 107.882 38.1308 108.45 38.462C109.018 38.7931 109.301 39.2189 109.301 39.7393C109.207 40.1178 108.781 40.7328 108.024 41.5844C107.267 42.4359 106.699 42.8853 106.321 42.9327C106.274 42.9327 106.108 43.0036 105.824 43.1455C105.54 43.2875 105.351 43.4057 105.257 43.5004H105.327C104.902 44.0681 104.476 44.3519 104.05 44.3519H103.482C103.293 44.7304 102.655 45.1089 101.566 45.4873C100.526 45.8658 99.5322 46.055 98.586 46.055ZM101.779 30.4432C103.199 30.4432 104.5 29.6389 105.682 28.0304C106.818 26.5165 107.385 25.0027 107.385 23.4888C107.385 22.6845 107.22 22.1168 106.889 21.7857C106.605 21.6437 106.345 21.5728 106.108 21.5728C105.872 21.5728 105.469 21.6437 104.902 21.7857C104.287 21.9276 103.341 22.5899 102.063 23.7726C100.786 24.908 99.8397 25.9252 99.2247 26.824L98.3021 28.3143C98.6806 28.1723 99.0354 28.1014 99.3666 28.1014C99.7451 28.0541 99.9579 28.0777 100.005 28.1723C100.005 28.8347 100.171 29.3787 100.502 29.8045C100.833 30.2303 101.259 30.4432 101.779 30.4432Z" fill="white"/>
</svg>
