<svg width="166" height="30" viewBox="0 0 166 30" fill="none" xmlns="http://www.w3.org/2000/svg">
<path d="M25.36 17.64C25.36 21.24 24.3333 24.1067 22.28 26.24C20.2533 28.3467 17.1733 29.4 13.04 29.4C9.09333 29.4 6.08 28.4 4 26.4C1.94667 24.3733 0.92 21.5067 0.92 17.8V0.439998H8.68V17.2C8.68 19.2267 9.05333 20.6933 9.8 21.6C10.5733 22.5067 11.6933 22.96 13.16 22.96C14.7333 22.96 15.8667 22.5067 16.56 21.6C17.28 20.6667 17.64 19.1867 17.64 17.16V0.439998H25.36V17.64ZM46.7134 0.439998C54.4734 0.439998 58.3534 3.25333 58.3534 8.88C58.3534 10.6133 57.9134 12.12 57.0334 13.4C56.1801 14.6533 55.0068 15.7067 53.5134 16.56L61.8334 29H53.0734L47.0334 18.6H45.0734V29H37.3534V0.439998H46.7134ZM46.5934 6.28H45.0734V12.8H46.5134C47.6868 12.8 48.6468 12.5467 49.3934 12.04C50.1668 11.5067 50.5534 10.5733 50.5534 9.24C50.5534 8.30667 50.2468 7.58666 49.6334 7.08C49.0201 6.54667 48.0068 6.28 46.5934 6.28ZM80.3838 0.439998C84.5171 0.439998 87.4638 1.05333 89.2238 2.28C90.9838 3.50667 91.8638 5.26667 91.8638 7.56C91.8638 8.81333 91.6371 9.88 91.1838 10.76C90.7304 11.6133 90.1571 12.2933 89.4638 12.8C88.7971 13.3067 88.1038 13.6533 87.3838 13.84V14.04C88.1571 14.2267 88.9304 14.5467 89.7038 15C90.4771 15.4533 91.1171 16.1333 91.6238 17.04C92.1571 17.92 92.4238 19.12 92.4238 20.64C92.4238 23.2267 91.4504 25.2667 89.5038 26.76C87.5571 28.2533 84.9038 29 81.5438 29H70.4238V0.439998H80.3838ZM80.4638 11.4C81.7438 11.4 82.6371 11.1333 83.1438 10.6C83.6771 10.0667 83.9438 9.42667 83.9438 8.68C83.9438 7.08 82.7304 6.28 80.3038 6.28H78.1438V11.4H80.4638ZM78.1438 17.04V23.04H80.8638C82.1971 23.04 83.1304 22.76 83.6638 22.2C84.1971 21.6133 84.4638 20.88 84.4638 20C84.4638 19.2267 84.1971 18.5467 83.6638 17.96C83.1304 17.3467 82.1438 17.04 80.7038 17.04H78.1438ZM120.897 29L119.497 23.64H110.217L108.777 29H100.297L109.617 0.32H119.897L129.337 29H120.897ZM116.657 12.64C116.524 12.1333 116.337 11.4133 116.097 10.48C115.857 9.52 115.617 8.53333 115.377 7.52C115.137 6.50667 114.95 5.68 114.817 5.04C114.71 5.68 114.537 6.48 114.297 7.44C114.084 8.4 113.857 9.34667 113.617 10.28C113.404 11.2133 113.217 12 113.057 12.64L111.817 17.32H117.897L116.657 12.64ZM165.6 29H155.48L145.04 8.88H144.88C144.934 9.49333 144.987 10.24 145.04 11.12C145.094 11.9733 145.134 12.84 145.16 13.72C145.214 14.6 145.24 15.4 145.24 16.12V29H138.4V0.439998H148.48L158.88 20.28H159C158.974 19.6667 158.934 18.9467 158.88 18.12C158.827 17.2933 158.787 16.4533 158.76 15.6C158.734 14.7467 158.72 14 158.72 13.36V0.439998H165.6V29Z" fill="white"/>
</svg>
