<svg width="24" height="24" viewBox="0 0 24 24" fill="none" xmlns="http://www.w3.org/2000/svg">
<path fill-rule="evenodd" clip-rule="evenodd" d="M10.75 16.245C10.2246 16.2976 9.7028 16.3952 9.19043 16.5378L8.84031 16.6428L8.47005 16.7611L6.61573 19.4284C6.49555 19.6011 6.30943 19.7141 6.1041 19.7428L6.00005 19.7501H5.25048C5.12105 19.7501 4.99202 19.7357 4.86576 19.7073C3.9229 19.4948 3.33081 18.5582 3.54329 17.6154L4.74096 12.3007C4.94745 11.3844 5.47929 10.6103 6.19819 10.089L6.22521 10.1359C5.73695 9.23822 5.20826 8.80901 4.62571 8.75578L4.50005 8.75009C3.83834 8.75009 3.37091 8.99203 3.08448 9.47728L3.01084 9.61566C2.83189 9.98923 2.384 10.147 2.01043 9.96806C1.63686 9.78912 1.47909 9.34122 1.65803 8.96765C2.19242 7.85203 3.21818 7.25009 4.50005 7.25009C5.75913 7.25009 6.78201 8.01803 7.55148 9.43549L7.56975 9.46759C7.83756 9.40694 8.11532 9.37509 8.39922 9.37509H10.75L10.7496 4.79908C10.3015 4.53967 10 4.05504 10 3.5C10 2.67157 10.6716 2 11.5 2C12.3285 2 13 2.67157 13 3.5C13 4.05463 12.699 4.53894 12.2515 4.7985L12.2501 9.37509H12.512L12.5948 9.19797C14.7278 4.68039 17.9428 2.68853 22.1233 3.38529C22.485 3.44557 22.75 3.75846 22.75 4.12509V12.1251C22.75 12.5393 22.4143 12.8751 22 12.8751H20C19.8011 12.8751 19.6104 12.7961 19.4697 12.6554L18.75 11.9361V13.0671L19.5562 17.9089L19.5636 17.9807L19.5696 18.1251C19.5696 19.0916 18.7861 19.8751 17.8196 19.8751H17C16.7443 19.8751 16.5062 19.7448 16.3683 19.5294L14.521 16.6431L14.2121 16.555C13.5688 16.3712 12.911 16.2587 12.25 16.2172V20.5H14.25C14.6642 20.5 15 20.8358 15 21.25C15 21.6642 14.6642 22 14.25 22H8.75003C8.33582 22 8.00003 21.6642 8.00003 21.25C8.00003 20.8358 8.33582 20.5 8.75003 20.5H10.75V16.245ZM20.5 7.75C20.5 7.33579 20.1642 7 19.75 7C19.3358 7 19 7.33579 19 7.75C19 8.16421 19.3358 8.5 19.75 8.5C20.1642 8.5 20.5 8.16421 20.5 7.75ZM14.2746 9.18886C15.9658 5.98554 18.2258 4.54922 21.1309 4.77331L21.25 4.78409V11.3751H20.311L18.5304 9.59476C18.0579 9.12229 17.25 9.45691 17.25 10.1251V13.1251L17.2603 13.2484L18.0662 18.084L18.0696 18.1251L18.063 18.1824C18.0371 18.2929 17.9379 18.3751 17.8196 18.3751L17.41 18.3741L15.6318 15.5958C15.5332 15.4418 15.3818 15.3292 15.2061 15.2789L14.6241 15.1127C12.5789 14.5283 10.4063 14.5639 8.3813 15.2148L7.77054 15.4111L7.67927 15.4471C7.56137 15.5029 7.4595 15.5888 7.38437 15.6968L5.60805 18.2491L5.25048 18.2501C5.23199 18.2501 5.21355 18.248 5.19552 18.244C5.06082 18.2136 4.97624 18.0798 5.00659 17.9451L6.20427 12.6305C6.30228 12.1955 6.52247 11.814 6.82382 11.5198C7.58244 12.9727 8.64219 13.7501 10 13.7501C11.7372 13.7501 13.1156 12.197 14.2494 9.27108C14.2599 9.24387 14.2688 9.21642 14.2746 9.18886ZM8.39922 10.8751L11.7999 10.8765C11.1957 11.8073 10.5862 12.2501 10 12.2501C9.28793 12.2501 8.68288 11.8246 8.18201 10.8855C8.25361 10.8786 8.32608 10.8751 8.39922 10.8751Z" fill="white"/>
</svg>
