<svg width="24" height="24" viewBox="0 0 24 24" fill="none" xmlns="http://www.w3.org/2000/svg">
<path fill-rule="evenodd" clip-rule="evenodd" d="M2.75003 3.75C3.16424 3.75 3.50003 4.08579 3.50003 4.5V12.5H21.25C21.6642 12.5 22 12.8358 22 13.25V19.5C22 19.9142 21.6642 20.25 21.25 20.25C20.8358 20.25 20.5 19.9142 20.5 19.5V17.75H3.50003V19.5C3.50003 19.9142 3.16424 20.25 2.75003 20.25C2.33582 20.25 2.00003 19.9142 2.00003 19.5V4.5C2.00003 4.08579 2.33582 3.75 2.75003 3.75ZM3.50003 14V16.25H20.5V14H3.50003Z" fill="white"/>
<path fill-rule="evenodd" clip-rule="evenodd" d="M4.50003 8.875C4.50003 7.42525 5.67528 6.25 7.12503 6.25C8.57478 6.25 9.75003 7.42525 9.75003 8.875C9.75003 10.3247 8.57478 11.5 7.12503 11.5C5.67528 11.5 4.50003 10.3247 4.50003 8.875ZM7.12503 7.75C6.50371 7.75 6.00003 8.25368 6.00003 8.875C6.00003 9.49632 6.50371 10 7.12503 10C7.74635 10 8.25003 9.49632 8.25003 8.875C8.25003 8.25368 7.74635 7.75 7.12503 7.75Z" fill="white"/>
<path fill-rule="evenodd" clip-rule="evenodd" d="M11.5 6.25C11.0858 6.25 10.75 6.58579 10.75 7V10.75C10.75 11.1642 11.0858 11.5 11.5 11.5H21.25C21.6642 11.5 22 11.1642 22 10.75V9.5C22 7.70507 20.545 6.25 18.75 6.25H11.5ZM20.5 10H12.25V7.75H18.75C19.7165 7.75 20.5 8.5335 20.5 9.5V10Z" fill="white"/>
</svg>
