<svg width="16" height="16" viewBox="0 0 16 16" fill="none" xmlns="http://www.w3.org/2000/svg">
<path d="M8 0C3.58065 0 0 3.58065 0 8C0 12.4194 3.58065 16 8 16C12.4194 16 16 12.4194 16 8C16 3.58065 12.4194 0 8 0ZM13.7742 5.16129H11.6129C11.3871 4 11.0323 2.96774 10.5806 2.12903C11.9677 2.74194 13.0968 3.80645 13.7742 5.16129ZM8 1.54839C8.58065 1.54839 9.54839 2.90323 10.0323 5.16129H5.93548C6.41935 2.90323 7.3871 1.54839 8 1.54839ZM1.54839 8C1.54839 7.58065 1.58065 7.12903 1.67742 6.70968H4.16129C4.12903 7.16129 4.12903 7.58065 4.12903 8C4.12903 8.45161 4.12903 8.87097 4.16129 9.29032H1.67742C1.58065 8.90323 1.54839 8.45161 1.54839 8ZM2.19355 10.8387H4.35484C4.58065 12.0323 4.93548 13.0645 5.3871 13.9032C4 13.2903 2.87097 12.1935 2.19355 10.8387ZM4.35484 5.16129H2.19355C2.87097 3.80645 4 2.74194 5.3871 2.12903C4.93548 2.96774 4.58065 4 4.35484 5.16129ZM8 14.4516C7.3871 14.4516 6.41935 13.129 5.93548 10.8387H10.0323C9.54839 13.129 8.58065 14.4516 8 14.4516ZM10.2581 9.29032H5.70968C5.67742 8.90323 5.67742 8.45161 5.67742 8C5.67742 7.54839 5.67742 7.12903 5.70968 6.70968H10.2581C10.2903 7.12903 10.3226 7.54839 10.3226 8C10.3226 8.45161 10.2903 8.90323 10.2581 9.29032ZM10.5806 13.9032C11.0323 13.0645 11.3871 12.0323 11.6129 10.8387H13.7742C13.0968 12.1935 11.9677 13.2903 10.5806 13.9032ZM11.8065 9.29032C11.8387 8.87097 11.871 8.45161 11.871 8C11.871 7.58065 11.8387 7.16129 11.8065 6.70968H14.3226C14.3871 7.12903 14.4516 7.58065 14.4516 8C14.4516 8.45161 14.3871 8.90323 14.3226 9.29032H11.8065Z" fill="black"/>
</svg>
