<svg width="16" height="16" viewBox="0 0 16 16" fill="none" xmlns="http://www.w3.org/2000/svg">
<path fill-rule="evenodd" clip-rule="evenodd" d="M11.6667 6.66667C11.6667 7.1796 11.4593 7.84249 11.0533 8.611C10.6558 9.36343 10.1137 10.132 9.55246 10.8336C8.99386 11.5319 8.43259 12.1435 8.00976 12.5814L8 12.5916L7.99023 12.5814C7.5674 12.1435 7.00613 11.5319 6.44753 10.8336C5.88624 10.132 5.3442 9.36343 4.94669 8.611C4.54068 7.84249 4.33333 7.1796 4.33333 6.66667C4.33333 5.41175 4.76302 4.5201 5.38408 3.93789C6.01535 3.34611 6.92439 3 8 3C9.0756 3 9.98464 3.34611 10.6159 3.93789C11.237 4.5201 11.6667 5.41175 11.6667 6.66667ZM12.6667 6.66667C12.6667 9.66667 8 14 8 14C8 14 3.33333 9.66667 3.33333 6.66667C3.33333 3.66667 5.42267 2 8 2C10.5773 2 12.6667 3.66667 12.6667 6.66667ZM7.99999 8C8.73637 8 9.33333 7.40305 9.33333 6.66667C9.33333 5.93029 8.73637 5.33333 7.99999 5.33333C7.26362 5.33333 6.66666 5.93029 6.66666 6.66667C6.66666 7.40305 7.26362 8 7.99999 8Z" fill="#fff"/>
</svg>
