<svg width="24" height="24" viewBox="0 0 24 24" fill="none" xmlns="http://www.w3.org/2000/svg">
<path d="M2.00201 12.002C2.00318 16.9214 5.58042 21.11 10.439 21.881V14.892H7.90201V12.002H10.442V9.802C10.3285 8.75954 10.6845 7.72059 11.4137 6.96693C12.1428 6.21327 13.1694 5.82301 14.215 5.902C14.9656 5.91412 15.7142 5.98096 16.455 6.102V8.561H15.191C14.7559 8.504 14.3184 8.64772 14.0018 8.95167C13.6852 9.25561 13.5238 9.68688 13.563 10.124V12.002H16.334L15.891 14.893H13.563V21.881C18.8175 21.0506 22.5021 16.2518 21.9475 10.9611C21.3929 5.67037 16.7933 1.73993 11.4808 2.01718C6.16838 2.29443 2.00286 6.68231 2.00201 12.002Z" fill="#2B2B2B"/>
</svg>