<svg width="24" height="24" viewBox="0 0 24 24" fill="none" xmlns="http://www.w3.org/2000/svg">
<path d="M19.995 6.688C20.8914 6.15209 21.5622 5.30824 21.882 4.314C21.0396 4.81381 20.118 5.16588 19.157 5.355C17.8246 3.94553 15.7135 3.60253 14.0034 4.51766C12.2933 5.43279 11.4075 7.37949 11.841 9.27C8.39061 9.09678 5.17597 7.46692 2.997 4.786C1.85984 6.74742 2.44095 9.25479 4.325 10.516C3.64371 10.4941 2.97753 10.3096 2.382 9.978C2.382 9.996 2.382 10.014 2.382 10.032C2.38239 12.0752 3.82237 13.8351 5.825 14.24C5.19306 14.4119 4.53021 14.4372 3.887 14.314C4.4502 16.0613 6.06055 17.2583 7.896 17.294C6.37583 18.4871 4.49848 19.1342 2.566 19.131C2.22347 19.1315 1.88121 19.1118 1.541 19.072C3.50339 20.333 5.78737 21.0024 8.12 21C11.3652 21.0223 14.484 19.7429 16.7787 17.448C19.0734 15.1531 20.3526 12.0343 20.33 8.789C20.33 8.603 20.3257 8.418 20.317 8.234C21.1575 7.62661 21.8828 6.87415 22.459 6.012C21.676 6.35907 20.8455 6.58693 19.995 6.688Z" fill="#2B2B2B"/>
</svg>
